<svg width="4922" height="3318" xmlns="http://www.w3.org/2000/svg" xmlns:xlink="http://www.w3.org/1999/xlink" xml:space="preserve" overflow="hidden"><defs><radialGradient cx="0" cy="0" r="5785898" fy="-2.60347e-10" gradientUnits="userSpaceOnUse" spreadMethod="pad" id="fill0" gradientTransform="matrix(0.000360892 0 0 0.000360892 73.9999 547)"><stop offset="0" stop-color="#FFFFFF" stop-opacity="1"/><stop offset="0.43" stop-color="#FFFFFF" stop-opacity="1"/><stop offset="1" stop-color="#FFFFFF" stop-opacity="1"/></radialGradient><radialGradient cx="2265218" cy="2263833" r="3202523" fx="0" fy="0" gradientUnits="userSpaceOnUse" spreadMethod="pad" id="fill1" gradientTransform="matrix(0.000360892 0 0 0.000360892 -5.00016 468)"><stop offset="0" stop-color="#FFFFFF" stop-opacity="1"/><stop offset="0.43" stop-color="#FFFFFF" stop-opacity="1"/><stop offset="0.91" stop-color="#747474" stop-opacity="1"/><stop offset="1" stop-color="#747474" stop-opacity="1"/></radialGradient></defs><g transform="translate(9 417)"><g><path d="M73.9999 1285C73.9999 877.414 404.638 547 812.5 547 1220.36 547 1551 877.414 1551 1285 1551 1692.59 1220.36 2023 812.5 2023 404.638 2023 73.9999 1692.59 73.9999 1285Z" fill="url(#fill0)" fill-rule="evenodd"/><path d="M401 1309C401 1008 644.781 764 945.501 764 1246.22 764 1490 1008 1490 1309 1490 1610 1246.22 1854 945.501 1854 644.781 1854 401 1610 401 1309ZM481.358 1309C481.358 1565.61 689.162 1773.64 945.501 1773.64 1201.84 1773.64 1409.64 1565.61 1409.64 1309 1409.64 1052.39 1201.84 844.358 945.501 844.358 689.162 844.358 481.358 1052.39 481.358 1309Z" fill="#4B0503" fill-rule="evenodd" fill-opacity="1"/><path d="M51.9999 1285.5C51.9999 865.487 392.487 525 812.5 525 1232.51 525 1573 865.487 1573 1285.5 1573 1705.51 1232.51 2046 812.5 2046 392.487 2046 51.9999 1705.51 51.9999 1285.5ZM159.611 1285.5C159.611 1646.08 451.919 1938.39 812.5 1938.39 1173.08 1938.39 1465.39 1646.08 1465.39 1285.5 1465.39 924.919 1173.08 632.611 812.5 632.611 451.919 632.611 159.611 924.919 159.611 1285.5Z" fill="#4B0503" fill-rule="evenodd" fill-opacity="1"/><path d="M476 1175.5C476 981.372 633.372 824 827.5 824 1021.63 824 1179 981.372 1179 1175.5 1179 1369.63 1021.63 1527 827.5 1527 633.372 1527 476 1369.63 476 1175.5Z" fill="#4B0503" fill-rule="evenodd" fill-opacity="1"/><path d="M959.247 2054.28 968.737 2089.7 964.577 2090.67C942.126 2094.88 919.352 2098.18 896.296 2100.52L866.985 2102 866.985 2065.32 892.547 2064.03C914.571 2061.8 936.326 2058.65 957.773 2054.62ZM665.752 2054.26 732.453 2064.03 758.014 2065.32 758.014 2102 728.704 2100.52C704.489 2098.06 680.586 2094.55 657.041 2090.02L656.224 2089.83ZM1150.84 1991.07 1169.2 2022.87 1156.83 2029.11C1136.68 2038.45 1116.09 2047 1095.09 2054.72L1073.99 2061.49 1064.5 2026.04 1082.44 2020.28C1102.5 2012.91 1122.18 2004.74 1141.43 1995.82ZM474.161 1991.05 483.334 1995.71C499.759 2003.33 516.491 2010.4 533.509 2016.89L560.54 2025.88 551.039 2061.35 520.442 2051.17C502.627 2044.37 485.111 2036.97 467.917 2028.99L455.807 2022.85ZM1319.84 1880.44 1345.88 1906.48 1293.71 1948.64 1263.87 1968.89 1245.5 1937.06 1272.18 1918.95ZM305.305 1880.29 344.493 1912.81 379.465 1937.12 361.077 1968.98 322.574 1942.22 279.299 1906.3ZM1455.95 1730.42 1487.78 1748.8 1472.5 1771.08 1423.9 1830.38 1397.88 1804.35 1442.97 1749.34ZM169.162 1730.35 187.904 1757.2C200.07 1773.28 212.842 1788.87 226.186 1803.94L226.85 1804.62 200.955 1830.52 198.725 1828.25C184.756 1812.47 171.386 1796.15 158.651 1779.32L137.311 1748.74ZM75.7515 1549.78 95.6896 1600.38 113.409 1636.69 81.5947 1655.06 62.1177 1615.15 40.1218 1559.33ZM1549.12 1549.75 1584.56 1559.25 1580.27 1572.44C1573.58 1590.31 1566.28 1607.89 1558.4 1625.14L1543.45 1655.09 1511.65 1636.73 1525.03 1609.92C1532.56 1593.44 1539.53 1576.65 1545.92 1559.58ZM-3.96748 1350.4 32.6996 1350.4 33.16 1360.12C35.1763 1381.31 38.0362 1402.25 41.7065 1422.91L46.5037 1444.78 11.0696 1454.28 5.60594 1429.37C1.76387 1407.74-1.23026 1385.82-3.34109 1363.64ZM1592.3 1350.4 1628.97 1350.4 1628.34 1363.64C1626.03 1387.91 1622.67 1411.86 1618.29 1435.47L1613.94 1454.28 1578.52 1444.79 1582.24 1428.73C1586.42 1406.19 1589.63 1383.3 1591.84 1360.12ZM6.4647 1136.3 42.1204 1145.86 33.16 1209.88 31.6673 1241.41-5.00016 1241.41-3.34109 1206.36ZM1618.54 1136.3 1618.91 1137.92C1622.99 1160.43 1626.14 1183.25 1628.34 1206.36L1630 1241.41 1593.33 1241.41 1591.84 1209.88 1583.01 1145.82ZM73.0965 931.843 104.897 950.208 99.969 960.079C92.4447 976.561 85.4746 993.349 79.0837 1010.42L69.3515 1040.31 33.9076 1030.82 44.7338 997.56C51.4243 979.689 58.7205 962.115 66.5973 944.861ZM1551.93 931.827 1558.52 945.11C1567.74 965.333 1576.17 985.996 1583.76 1007.06L1591.21 1030.78 1555.78 1040.28 1549.25 1019.49C1542 999.374 1533.95 979.634 1525.14 960.316L1520.12 950.195ZM191.271 751.609 217.292 777.636 182.025 820.665 158.336 855.21 126.501 836.826 152.497 798.917ZM1433.95 751.378 1478.87 807.674 1498.42 836.868 1466.61 855.239 1449.06 829.03 1407.9 777.441ZM1272.91 607.267 1302.43 627.781 1357.62 673.591 1331.61 699.603 1280.51 657.185 1254.52 639.125ZM352.078 607.251 370.452 639.083 352.818 651.051 293.095 699.313 267.055 673.267 331.289 621.36ZM1079.32 510.436 1104.56 518.828C1122.37 525.626 1139.89 533.028 1157.08 541.008L1178.93 552.086 1160.58 583.884 1141.67 574.294C1125.24 566.671 1108.51 559.601 1091.49 553.107L1069.82 545.901ZM545.618 510.239 555.114 545.687 542.556 549.719C522.496 557.089 502.822 565.257 483.571 574.185L464.397 583.847 446.04 552.044 468.165 540.893C488.318 531.547 508.913 522.997 529.912 515.282ZM758.014 468 758.014 504.676 732.453 505.967C710.429 508.204 688.674 511.354 667.227 515.38L660.242 516.995 650.753 481.571 660.424 479.334C682.875 475.12 705.648 471.822 728.704 469.48ZM866.985 468 896.296 469.48C920.51 471.94 944.414 475.454 967.959 479.976L974.267 481.477 964.78 516.891 961.004 515.993C938.512 511.673 915.678 508.316 892.547 505.967L866.985 504.676Z" fill="url(#fill1)" fill-rule="evenodd"/><text fill="#000000" fill-opacity="1" font-family="Exon regular,Exon regular_MSFontService,sans-serif" font-style="normal" font-variant="normal" font-weight="700" font-stretch="normal" font-size="1577" text-anchor="start" direction="ltr" writing-mode="lr-tb" unicode-bidi="normal" text-decoration="none" transform="matrix(1 0 0 1 1661.54 1692)">AquariusOS</text><text fill="#000000" fill-opacity="1" font-family="Brooklyn Normal,Brooklyn Normal_MSFontService,sans-serif" font-style="normal" font-variant="normal" font-weight="400" font-stretch="normal" font-size="128" text-anchor="start" direction="ltr" writing-mode="lr-tb" unicode-bidi="normal" text-decoration="none" transform="matrix(1 0 0 1 1661.54 1868)">Acadia Internal Software Platform</text><text fill="#000000" fill-opacity="1" font-family="Brooklyn Normal,Brooklyn Normal_MSFontService,sans-serif" font-style="normal" font-variant="normal" font-weight="400" font-stretch="normal" font-size="128" text-anchor="start" direction="ltr" writing-mode="lr-tb" unicode-bidi="normal" text-decoration="none" transform="matrix(1 0 0 1 1661.54 2015)">Development</text><text fill="#000000" fill-opacity="1" font-family="Brooklyn Normal,Brooklyn Normal_MSFontService,sans-serif" font-style="normal" font-variant="normal" font-weight="400" font-stretch="normal" font-size="128" text-anchor="start" direction="ltr" writing-mode="lr-tb" unicode-bidi="normal" text-decoration="none" transform="matrix(1 0 0 1 2594.82 2015)">Experimental</text></g></g></svg>