<svg width="1641" height="1636" xmlns="http://www.w3.org/2000/svg" xmlns:xlink="http://www.w3.org/1999/xlink" xml:space="preserve" overflow="hidden"><defs><radialGradient cx="0" cy="0" r="5785898" fy="-2.60347e-10" gradientUnits="userSpaceOnUse" spreadMethod="pad" id="fill0" gradientTransform="matrix(0.000360892 0 0 0.000360892 1460 547)"><stop offset="0" stop-color="#FFFFFF" stop-opacity="1"/><stop offset="0.43" stop-color="#FFFFFF" stop-opacity="1"/><stop offset="1" stop-color="#FFFFFF" stop-opacity="1"/></radialGradient><radialGradient cx="2265218" cy="2263833" r="3202523" fx="0" fy="0" gradientUnits="userSpaceOnUse" spreadMethod="pad" id="fill1" gradientTransform="matrix(0.000360892 0 0 0.000360892 1381 468)"><stop offset="0" stop-color="#FFFFFF" stop-opacity="1"/><stop offset="0.43" stop-color="#FFFFFF" stop-opacity="1"/><stop offset="0.91" stop-color="#747474" stop-opacity="1"/><stop offset="1" stop-color="#747474" stop-opacity="1"/></radialGradient></defs><g transform="translate(-1379 -467)"><g><path d="M1460 1285C1460 877.414 1790.64 547 2198.5 547 2606.36 547 2937 877.414 2937 1285 2937 1692.59 2606.36 2023 2198.5 2023 1790.64 2023 1460 1692.59 1460 1285Z" fill="url(#fill0)" fill-rule="evenodd"/><path d="M1787 1309C1787 1008 2030.78 764 2331.5 764 2632.22 764 2876 1008 2876 1309 2876 1610 2632.22 1854 2331.5 1854 2030.78 1854 1787 1610 1787 1309ZM1867.36 1309C1867.36 1565.61 2075.16 1773.64 2331.5 1773.64 2587.84 1773.64 2795.64 1565.61 2795.64 1309 2795.64 1052.39 2587.84 844.358 2331.5 844.358 2075.16 844.358 1867.36 1052.39 1867.36 1309Z" fill="#4B0503" fill-rule="evenodd" fill-opacity="1"/><path d="M1438 1285.5C1438 865.487 1778.49 525 2198.5 525 2618.51 525 2959 865.487 2959 1285.5 2959 1705.51 2618.51 2046 2198.5 2046 1778.49 2046 1438 1705.51 1438 1285.5ZM1545.61 1285.5C1545.61 1646.08 1837.92 1938.39 2198.5 1938.39 2559.08 1938.39 2851.39 1646.08 2851.39 1285.5 2851.39 924.919 2559.08 632.611 2198.5 632.611 1837.92 632.611 1545.61 924.919 1545.61 1285.5Z" fill="#4B0503" fill-rule="evenodd" fill-opacity="1"/><path d="M1862 1175.5C1862 981.372 2019.37 824 2213.5 824 2407.63 824 2565 981.372 2565 1175.5 2565 1369.63 2407.63 1527 2213.5 1527 2019.37 1527 1862 1369.63 1862 1175.5Z" fill="#4B0503" fill-rule="evenodd" fill-opacity="1"/><path d="M2345.25 2054.28 2354.74 2089.7 2350.58 2090.67C2328.13 2094.88 2305.35 2098.18 2282.3 2100.52L2252.98 2102 2252.98 2065.32 2278.55 2064.03C2300.57 2061.8 2322.33 2058.65 2343.77 2054.62ZM2051.75 2054.26 2118.45 2064.03 2144.01 2065.32 2144.01 2102 2114.7 2100.52C2090.49 2098.06 2066.59 2094.55 2043.04 2090.02L2042.22 2089.83ZM2536.84 1991.07 2555.2 2022.87 2542.83 2029.11C2522.68 2038.45 2502.09 2047 2481.09 2054.72L2459.99 2061.49 2450.5 2026.04 2468.44 2020.28C2488.5 2012.91 2508.18 2004.74 2527.43 1995.82ZM1860.16 1991.05 1869.33 1995.71C1885.76 2003.33 1902.49 2010.4 1919.51 2016.89L1946.54 2025.88 1937.04 2061.35 1906.44 2051.17C1888.63 2044.37 1871.11 2036.97 1853.92 2028.99L1841.81 2022.85ZM2705.84 1880.44 2731.88 1906.48 2679.71 1948.64 2649.87 1968.89 2631.5 1937.06 2658.18 1918.95ZM1691.31 1880.29 1730.49 1912.81 1765.47 1937.12 1747.08 1968.98 1708.57 1942.22 1665.3 1906.3ZM2841.95 1730.42 2873.78 1748.8 2858.5 1771.08 2809.9 1830.38 2783.88 1804.35 2828.97 1749.34ZM1555.16 1730.35 1573.9 1757.2C1586.07 1773.28 1598.84 1788.87 1612.19 1803.94L1612.85 1804.62 1586.95 1830.52 1584.73 1828.25C1570.76 1812.47 1557.39 1796.15 1544.65 1779.32L1523.31 1748.74ZM1461.75 1549.78 1481.69 1600.38 1499.41 1636.69 1467.59 1655.06 1448.12 1615.15 1426.12 1559.33ZM2935.12 1549.75 2970.56 1559.25 2966.27 1572.44C2959.58 1590.31 2952.28 1607.89 2944.4 1625.14L2929.45 1655.09 2897.65 1636.73 2911.03 1609.92C2918.56 1593.44 2925.53 1576.65 2931.92 1559.58ZM1382.03 1350.4 1418.7 1350.4 1419.16 1360.12C1421.18 1381.31 1424.04 1402.25 1427.71 1422.91L1432.5 1444.78 1397.07 1454.28 1391.61 1429.37C1387.76 1407.74 1384.77 1385.82 1382.66 1363.64ZM2978.3 1350.4 3014.97 1350.4 3014.34 1363.64C3012.03 1387.91 3008.67 1411.86 3004.29 1435.47L2999.94 1454.28 2964.52 1444.79 2968.24 1428.73C2972.42 1406.19 2975.63 1383.3 2977.84 1360.12ZM1392.46 1136.3 1428.12 1145.86 1419.16 1209.88 1417.67 1241.41 1381 1241.41 1382.66 1206.36ZM3004.54 1136.3 3004.91 1137.92C3008.99 1160.43 3012.14 1183.25 3014.34 1206.36L3016 1241.41 2979.33 1241.41 2977.84 1209.88 2969.01 1145.82ZM1459.1 931.843 1490.9 950.208 1485.97 960.079C1478.44 976.561 1471.47 993.349 1465.08 1010.42L1455.35 1040.31 1419.91 1030.82 1430.73 997.56C1437.42 979.689 1444.72 962.115 1452.6 944.861ZM2937.93 931.827 2944.52 945.11C2953.74 965.333 2962.17 985.996 2969.76 1007.06L2977.21 1030.78 2941.78 1040.28 2935.25 1019.49C2928 999.374 2919.95 979.634 2911.14 960.316L2906.12 950.195ZM1577.27 751.609 1603.29 777.636 1568.03 820.665 1544.34 855.21 1512.5 836.826 1538.5 798.917ZM2819.95 751.378 2864.87 807.674 2884.42 836.868 2852.61 855.239 2835.06 829.03 2793.9 777.441ZM2658.91 607.267 2688.43 627.781 2743.62 673.591 2717.61 699.603 2666.51 657.185 2640.52 639.125ZM1738.08 607.251 1756.45 639.083 1738.82 651.051 1679.1 699.313 1653.05 673.267 1717.29 621.36ZM2465.32 510.436 2490.56 518.828C2508.37 525.626 2525.89 533.028 2543.08 541.008L2564.93 552.086 2546.58 583.884 2527.67 574.294C2511.24 566.671 2494.51 559.601 2477.49 553.107L2455.82 545.901ZM1931.62 510.239 1941.11 545.687 1928.56 549.719C1908.5 557.089 1888.82 565.257 1869.57 574.185L1850.4 583.847 1832.04 552.044 1854.17 540.893C1874.32 531.547 1894.91 522.997 1915.91 515.282ZM2144.01 468 2144.01 504.676 2118.45 505.967C2096.43 508.204 2074.67 511.354 2053.23 515.38L2046.24 516.995 2036.75 481.571 2046.42 479.334C2068.87 475.12 2091.65 471.822 2114.7 469.48ZM2252.98 468 2282.3 469.48C2306.51 471.94 2330.41 475.454 2353.96 479.976L2360.27 481.477 2350.78 516.891 2347 515.993C2324.51 511.673 2301.68 508.316 2278.55 505.967L2252.98 504.676Z" fill="url(#fill1)" fill-rule="evenodd"/></g></g></svg>