<svg width="4849" height="3318" xmlns="http://www.w3.org/2000/svg" xmlns:xlink="http://www.w3.org/1999/xlink" xml:space="preserve" overflow="hidden"><defs><clipPath id="clip0"><rect x="0" y="-417" width="4849" height="3318"/></clipPath><clipPath id="clip1"><rect x="0" y="-417" width="4849" height="3318"/></clipPath><radialGradient cx="0.25" cy="0.25" r="5783938" fx="0" fy="0" gradientUnits="userSpaceOnUse" spreadMethod="pad" id="fill2" gradientTransform="matrix(0.000360892 0 0 0.000360892 23 547)"><stop offset="0" stop-color="#FFFFFF" stop-opacity="1"/><stop offset="0.43" stop-color="#FFFFFF" stop-opacity="1"/><stop offset="0.91" stop-color="#747474" stop-opacity="1"/><stop offset="1" stop-color="#747474" stop-opacity="1"/></radialGradient></defs><g clip-path="url(#clip0)" transform="matrix(1 0 0 1 0 417)"><g clip-path="url(#clip1)"><path d="M23 1285C23 877.414 353.414 547 761 547 1168.59 547 1499 877.414 1499 1285 1499 1692.59 1168.59 2023 761 2023 353.414 2023 23 1692.59 23 1285Z" fill="url(#fill2)" fill-rule="evenodd"/><path d="M349 1309C349 1008 592.781 764 893.5 764 1194.22 764 1438 1008 1438 1309 1438 1610 1194.22 1854 893.5 1854 592.781 1854 349 1610 349 1309ZM429.358 1309C429.358 1565.61 637.161 1773.64 893.5 1773.64 1149.84 1773.64 1357.64 1565.61 1357.64 1309 1357.64 1052.39 1149.84 844.358 893.5 844.358 637.161 844.358 429.358 1052.39 429.358 1309Z" fill="#0B005C" fill-rule="evenodd" fill-opacity="1"/><path d="M0 1285.5C-1.93771e-13 865.488 340.711 525 761 525 1181.29 525 1522 865.488 1522 1285.5 1522 1705.51 1181.29 2046 761 2046 340.711 2046-3.87542e-13 1705.51 0 1285.5ZM107.61 1285.5C107.61 1646.08 400.143 1938.39 761 1938.39 1121.86 1938.39 1414.39 1646.08 1414.39 1285.5 1414.39 924.92 1121.86 632.612 761 632.612 400.143 632.612 107.61 924.92 107.61 1285.5Z" fill="#0B005C" fill-rule="evenodd" fill-opacity="1"/><path d="M424 1175.5C424 981.372 581.372 824 775.5 824 969.628 824 1127 981.372 1127 1175.5 1127 1369.63 969.628 1527 775.5 1527 581.372 1527 424 1369.63 424 1175.5Z" fill="#0B005C" fill-rule="evenodd" fill-opacity="1"/><text fill="#FFFFFF" fill-opacity="1" font-family="Exon regular,Exon regular_MSFontService,sans-serif" font-style="normal" font-variant="normal" font-weight="700" font-stretch="normal" font-size="1577" text-anchor="start" direction="ltr" writing-mode="lr-tb" unicode-bidi="normal" text-decoration="none" transform="matrix(1 0 0 1 1596.31 1692)">AquariusOS</text><text fill="#FFFFFF" fill-opacity="1" font-family="Brooklyn Normal,Brooklyn Normal_MSFontService,sans-serif" font-style="normal" font-variant="normal" font-weight="400" font-stretch="normal" font-size="128" text-anchor="start" direction="ltr" writing-mode="lr-tb" unicode-bidi="normal" text-decoration="none" transform="matrix(1 0 0 1 1596.31 1868)">Acadia Internal Software Platform</text><text fill="#FFFFFF" fill-opacity="1" font-family="Brooklyn Normal,Brooklyn Normal_MSFontService,sans-serif" font-style="normal" font-variant="normal" font-weight="400" font-stretch="normal" font-size="128" text-anchor="start" direction="ltr" writing-mode="lr-tb" unicode-bidi="normal" text-decoration="none" transform="matrix(1 0 0 1 1596.31 2015)">Deploy</text><text fill="#FFFFFF" fill-opacity="1" font-family="Brooklyn Normal,Brooklyn Normal_MSFontService,sans-serif" font-style="normal" font-variant="normal" font-weight="400" font-stretch="normal" font-size="128" text-anchor="start" direction="ltr" writing-mode="lr-tb" unicode-bidi="normal" text-decoration="none" transform="matrix(1 0 0 1 2059.8 2015)">-</text><text fill="#FFFFFF" fill-opacity="1" font-family="Brooklyn Normal,Brooklyn Normal_MSFontService,sans-serif" font-style="normal" font-variant="normal" font-weight="400" font-stretch="normal" font-size="128" text-anchor="start" direction="ltr" writing-mode="lr-tb" unicode-bidi="normal" text-decoration="none" transform="matrix(1 0 0 1 2113.65 2015)">Ready Edition</text></g></g></svg>