<svg width="1526" height="1526" xmlns="http://www.w3.org/2000/svg" xmlns:xlink="http://www.w3.org/1999/xlink" xml:space="preserve" overflow="hidden"><defs><radialGradient cx="0" cy="0" r="5785898" fy="-2.60347e-10" gradientUnits="userSpaceOnUse" spreadMethod="pad" id="fill0" gradientTransform="matrix(0.000360892 0 0 0.000360892 1460 547)"><stop offset="0" stop-color="#FFFFFF" stop-opacity="1"/><stop offset="0.43" stop-color="#FFFFFF" stop-opacity="1"/><stop offset="0.91" stop-color="#747474" stop-opacity="1"/><stop offset="1" stop-color="#747474" stop-opacity="1"/></radialGradient></defs><g transform="translate(-1434 -522)"><g><path d="M1460 1285C1460 877.414 1790.64 547 2198.5 547 2606.36 547 2937 877.414 2937 1285 2937 1692.59 2606.36 2023 2198.5 2023 1790.64 2023 1460 1692.59 1460 1285Z" fill="url(#fill0)" fill-rule="evenodd"/><path d="M1787 1309C1787 1008 2030.78 764 2331.5 764 2632.22 764 2876 1008 2876 1309 2876 1610 2632.22 1854 2331.5 1854 2030.78 1854 1787 1610 1787 1309ZM1867.36 1309C1867.36 1565.61 2075.16 1773.64 2331.5 1773.64 2587.84 1773.64 2795.64 1565.61 2795.64 1309 2795.64 1052.39 2587.84 844.358 2331.5 844.358 2075.16 844.358 1867.36 1052.39 1867.36 1309Z" fill="#073258" fill-rule="evenodd" fill-opacity="1"/><path d="M1438 1285.5C1438 865.487 1778.49 525 2198.5 525 2618.51 525 2959 865.487 2959 1285.5 2959 1705.51 2618.51 2046 2198.5 2046 1778.49 2046 1438 1705.51 1438 1285.5ZM1545.61 1285.5C1545.61 1646.08 1837.92 1938.39 2198.5 1938.39 2559.08 1938.39 2851.39 1646.08 2851.39 1285.5 2851.39 924.919 2559.08 632.611 2198.5 632.611 1837.92 632.611 1545.61 924.919 1545.61 1285.5Z" fill="#073258" fill-rule="evenodd" fill-opacity="1"/><path d="M1862 1175.5C1862 981.372 2019.37 824 2213.5 824 2407.63 824 2565 981.372 2565 1175.5 2565 1369.63 2407.63 1527 2213.5 1527 2019.37 1527 1862 1369.63 1862 1175.5Z" fill="#073258" fill-rule="evenodd" fill-opacity="1"/></g></g></svg>