<svg width="2044" height="2044" xmlns="http://www.w3.org/2000/svg" xmlns:xlink="http://www.w3.org/1999/xlink" xml:space="preserve" overflow="hidden"><g transform="translate(-1150 -247)"><g><path d="M2346.27 508.57C2341.5 495.037 2348.6 480.195 2362.13 475.42 2375.66 470.645 2390.5 477.744 2395.28 491.277 2400.05 504.81 2392.96 519.652 2379.42 524.427 2365.89 529.202 2351.05 522.102 2346.27 508.57Z" stroke="#FFFFFF" stroke-width="20.625" stroke-linecap="butt" stroke-linejoin="miter" stroke-miterlimit="8" stroke-opacity="1" fill="#FFFFFF" fill-rule="evenodd" fill-opacity="1"/><path d="M2011.64 926.385C2005.19 908.096 2014.78 888.039 2033.07 881.586 2051.36 875.133 2071.41 884.727 2077.87 903.015 2084.32 921.304 2074.73 941.361 2056.44 947.814 2038.15 954.267 2018.09 944.673 2011.64 926.385Z" stroke="#FFFFFF" stroke-width="20.625" stroke-linecap="butt" stroke-linejoin="miter" stroke-miterlimit="8" stroke-opacity="1" fill="#FFFFFF" fill-rule="evenodd" fill-opacity="1"/><path d="M1704.92 1335.61C1700.15 1322.07 1707.25 1307.23 1720.78 1302.46 1734.31 1297.68 1749.15 1304.78 1753.93 1318.32 1758.7 1331.85 1751.61 1346.69 1738.07 1351.47 1724.54 1356.24 1709.7 1349.14 1704.92 1335.61Z" stroke="#FFFFFF" stroke-width="20.625" stroke-linecap="butt" stroke-linejoin="miter" stroke-miterlimit="8" stroke-opacity="1" fill="#FFFFFF" fill-rule="evenodd" fill-opacity="1"/><path d="M2075.85 1407.48C2072.83 1398.92 2077.32 1389.53 2085.88 1386.51 2094.44 1383.49 2103.83 1387.98 2106.85 1396.54 2109.88 1405.1 2105.38 1414.49 2096.82 1417.51 2088.26 1420.53 2078.87 1416.04 2075.85 1407.48Z" stroke="#FFFFFF" stroke-width="20.625" stroke-linecap="butt" stroke-linejoin="miter" stroke-miterlimit="8" stroke-opacity="1" fill="#FFFFFF" fill-rule="evenodd" fill-opacity="1"/><path d="M2373.77 1309.77C2372.12 1305.08 2374.58 1299.93 2379.27 1298.28 2383.96 1296.62 2389.1 1299.08 2390.76 1303.78 2392.41 1308.47 2389.95 1313.61 2385.26 1315.27 2380.57 1316.92 2375.43 1314.46 2373.77 1309.77Z" stroke="#FFFFFF" stroke-width="20.625" stroke-linecap="butt" stroke-linejoin="miter" stroke-miterlimit="8" stroke-opacity="1" fill="#FFFFFF" fill-rule="evenodd" fill-opacity="1"/><path d="M1753.11 1563.08C1748.33 1549.54 1755.43 1534.7 1768.97 1529.93 1782.5 1525.15 1797.34 1532.25 1802.12 1545.78 1806.89 1559.32 1799.79 1574.16 1786.26 1578.93 1772.73 1583.71 1757.88 1576.61 1753.11 1563.08Z" stroke="#FFFFFF" stroke-width="20.625" stroke-linecap="butt" stroke-linejoin="miter" stroke-miterlimit="8" stroke-opacity="1" fill="#FFFFFF" fill-rule="evenodd" fill-opacity="1"/><path d="M1649.07 1648.82C1644.3 1635.29 1651.4 1620.45 1664.93 1615.68 1678.46 1610.9 1693.3 1618 1698.08 1631.53 1702.85 1645.07 1695.76 1659.91 1682.22 1664.68 1668.69 1669.46 1653.85 1662.36 1649.07 1648.82Z" stroke="#FFFFFF" stroke-width="20.625" stroke-linecap="butt" stroke-linejoin="miter" stroke-miterlimit="8" stroke-opacity="1" fill="#FFFFFF" fill-rule="evenodd" fill-opacity="1"/><path d="M1683.07 1757.47C1680.31 1749.64 1684.42 1741.05 1692.25 1738.29 1700.08 1735.52 1708.67 1739.63 1711.43 1747.47 1714.2 1755.3 1710.09 1763.89 1702.26 1766.65 1694.42 1769.41 1685.83 1765.3 1683.07 1757.47Z" stroke="#FFFFFF" stroke-width="20.625" stroke-linecap="butt" stroke-linejoin="miter" stroke-miterlimit="8" stroke-opacity="1" fill="#FFFFFF" fill-rule="evenodd" fill-opacity="1"/><path d="M2098.2 2090.65C2093.42 2077.11 2100.52 2062.27 2114.06 2057.5 2127.59 2052.72 2142.43 2059.82 2147.21 2073.35 2151.98 2086.89 2144.88 2101.73 2131.35 2106.5 2117.81 2111.28 2102.97 2104.18 2098.2 2090.65Z" stroke="#FFFFFF" stroke-width="20.625" stroke-linecap="butt" stroke-linejoin="miter" stroke-miterlimit="8" stroke-opacity="1" fill="#FFFFFF" fill-rule="evenodd" fill-opacity="1"/><path d="M2139.71 1852.91C2134.93 1839.38 2142.03 1824.54 2155.56 1819.76 2169.1 1814.99 2183.94 1822.09 2188.71 1835.62 2193.49 1849.15 2186.39 1863.99 2172.86 1868.77 2159.32 1873.54 2144.48 1866.44 2139.71 1852.91Z" stroke="#FFFFFF" stroke-width="20.625" stroke-linecap="butt" stroke-linejoin="miter" stroke-miterlimit="8" stroke-opacity="1" fill="#FFFFFF" fill-rule="evenodd" fill-opacity="1"/><path d="M2365.17 1739.82C2360.4 1726.29 2367.5 1711.44 2381.03 1706.67 2394.56 1701.89 2409.41 1708.99 2414.18 1722.53 2418.96 1736.06 2411.86 1750.9 2398.32 1755.68 2384.79 1760.45 2369.95 1753.35 2365.17 1739.82Z" stroke="#FFFFFF" stroke-width="20.625" stroke-linecap="butt" stroke-linejoin="miter" stroke-miterlimit="8" stroke-opacity="1" fill="#FFFFFF" fill-rule="evenodd" fill-opacity="1"/><path d="M2670.25 1852.34C2665.47 1838.81 2672.57 1823.97 2686.11 1819.19 2699.64 1814.42 2714.48 1821.52 2719.26 1835.05 2724.03 1848.58 2716.93 1863.42 2703.4 1868.2 2689.87 1872.97 2675.03 1865.87 2670.25 1852.34Z" stroke="#FFFFFF" stroke-width="20.625" stroke-linecap="butt" stroke-linejoin="miter" stroke-miterlimit="8" stroke-opacity="1" fill="#FFFFFF" fill-rule="evenodd" fill-opacity="1"/><path d="M0 0 868.642 543.861" stroke="#FFFFFF" stroke-width="20.625" stroke-linecap="butt" stroke-linejoin="miter" stroke-miterlimit="8" stroke-opacity="1" fill="none" fill-rule="evenodd" transform="matrix(-0.943015 0.332751 0.332751 0.943015 2378.81 501.611)"/><path d="M1706.5 1316.5 2077.04 1395.67" stroke="#FFFFFF" stroke-width="20.625" stroke-linecap="butt" stroke-linejoin="miter" stroke-miterlimit="8" stroke-opacity="1" fill="none" fill-rule="evenodd"/><path d="M0 0 278.31 90.6995" stroke="#FFFFFF" stroke-width="20.625" stroke-linecap="butt" stroke-linejoin="miter" stroke-miterlimit="8" stroke-opacity="1" fill="none" fill-rule="evenodd" transform="matrix(1 0 0 -1 2107.5 1397.2)"/><path d="M0 0 224.266 27.2185" stroke="#FFFFFF" stroke-width="20.625" stroke-linecap="butt" stroke-linejoin="miter" stroke-miterlimit="8" stroke-opacity="1" fill="none" fill-rule="evenodd" transform="matrix(0.943015 -0.332751 -0.332751 -0.943015 2170.13 1838.96)"/><path d="M2389.07 1726.63 2709.88 1852.01" stroke="#FFFFFF" stroke-width="20.625" stroke-linecap="butt" stroke-linejoin="miter" stroke-miterlimit="8" stroke-opacity="1" fill="none" fill-rule="evenodd"/><path d="M1711.5 1759.5 2146.82 2093.76" stroke="#FFFFFF" stroke-width="20.625" stroke-linecap="butt" stroke-linejoin="miter" stroke-miterlimit="8" stroke-opacity="1" fill="none" fill-rule="evenodd"/><path d="M0 0 117.751 223.486" stroke="#FFFFFF" stroke-width="20.625" stroke-linecap="butt" stroke-linejoin="miter" stroke-miterlimit="8" stroke-opacity="1" fill="none" fill-rule="evenodd" transform="matrix(-0.943015 0.332751 0.332751 0.943015 2168.02 1856.57)"/><path d="M0 0 18.3738 200.75" stroke="#FFFFFF" stroke-width="20.625" stroke-linecap="butt" stroke-linejoin="miter" stroke-miterlimit="8" stroke-opacity="1" fill="none" fill-rule="evenodd" transform="matrix(-0.943015 0.332751 0.332751 0.943015 1738.07 1351.47)"/><path d="M0 0 20.6329 101.881" stroke="#FFFFFF" stroke-width="20.625" stroke-linecap="butt" stroke-linejoin="miter" stroke-miterlimit="8" stroke-opacity="1" fill="none" fill-rule="evenodd" transform="matrix(-0.943015 0.332751 0.332751 0.943015 1677.17 1645.78)"/><path d="M0 0 110.829 31.0205" stroke="#FFFFFF" stroke-width="20.625" stroke-linecap="butt" stroke-linejoin="miter" stroke-miterlimit="8" stroke-opacity="1" fill="none" fill-rule="evenodd" transform="matrix(-0.943015 0.332751 0.332751 0.943015 1765.03 1573.98)"/><path d="M2304.5 500.5C2304.5 463.497 2334.5 433.5 2371.5 433.5 2408.5 433.5 2438.5 463.497 2438.5 500.5 2438.5 537.503 2408.5 567.5 2371.5 567.5 2334.5 567.5 2304.5 537.503 2304.5 500.5ZM2317.61 500.5C2317.61 530.263 2341.74 554.391 2371.5 554.391 2401.26 554.391 2425.39 530.263 2425.39 500.5 2425.39 470.737 2401.26 446.609 2371.5 446.609 2341.74 446.609 2317.61 470.737 2317.61 500.5Z" stroke="#FFFFFF" stroke-width="6.875" stroke-linecap="butt" stroke-linejoin="miter" stroke-miterlimit="8" stroke-opacity="1" fill="#FFFFFF" fill-rule="evenodd" fill-opacity="1"/><path d="M1978.5 914C1978.5 877.273 2008.27 847.5 2045 847.5 2081.73 847.5 2111.5 877.273 2111.5 914 2111.5 950.727 2081.73 980.5 2045 980.5 2008.27 980.5 1978.5 950.727 1978.5 914ZM1984.25 914C1984.25 947.553 2011.45 974.753 2045 974.753 2078.55 974.753 2105.75 947.553 2105.75 914 2105.75 880.447 2078.55 853.247 2045 853.247 2011.45 853.247 1984.25 880.447 1984.25 914Z" stroke="#FFFFFF" stroke-width="6.875" stroke-linecap="butt" stroke-linejoin="miter" stroke-miterlimit="8" stroke-opacity="1" fill="#FFFFFF" fill-rule="evenodd" fill-opacity="1"/><path d="M2344.5 1307C2344.5 1285.18 2362.18 1267.5 2384 1267.5 2405.81 1267.5 2423.5 1285.18 2423.5 1307 2423.5 1328.82 2405.81 1346.5 2384 1346.5 2362.18 1346.5 2344.5 1328.82 2344.5 1307ZM2347.91 1307C2347.91 1326.93 2364.07 1343.09 2384 1343.09 2403.93 1343.09 2420.09 1326.93 2420.09 1307 2420.09 1287.07 2403.93 1270.91 2384 1270.91 2364.07 1270.91 2347.91 1287.07 2347.91 1307Z" stroke="#FFFFFF" stroke-width="6.875" stroke-linecap="butt" stroke-linejoin="miter" stroke-miterlimit="8" stroke-opacity="1" fill="#FFFFFF" fill-rule="evenodd" fill-opacity="1"/><path d="M1709.5 1554.5C1709.5 1517.5 1739.5 1487.5 1776.5 1487.5 1813.5 1487.5 1843.5 1517.5 1843.5 1554.5 1843.5 1591.5 1813.5 1621.5 1776.5 1621.5 1739.5 1621.5 1709.5 1591.5 1709.5 1554.5ZM1715.29 1554.5C1715.29 1588.31 1742.69 1615.71 1776.5 1615.71 1810.31 1615.71 1837.71 1588.31 1837.71 1554.5 1837.71 1520.69 1810.31 1493.29 1776.5 1493.29 1742.69 1493.29 1715.29 1520.69 1715.29 1554.5Z" stroke="#FFFFFF" stroke-width="6.875" stroke-linecap="butt" stroke-linejoin="miter" stroke-miterlimit="8" stroke-opacity="1" fill="#FFFFFF" fill-rule="evenodd" fill-opacity="1"/><path d="M2109.5 1846.5C2109.5 1816.68 2133.68 1792.5 2163.5 1792.5 2193.32 1792.5 2217.5 1816.68 2217.5 1846.5 2217.5 1876.32 2193.32 1900.5 2163.5 1900.5 2133.68 1900.5 2109.5 1876.32 2109.5 1846.5ZM2109.5 1846.5C2109.5 1876.32 2133.68 1900.5 2163.5 1900.5 2193.32 1900.5 2217.5 1876.32 2217.5 1846.5 2217.5 1816.68 2193.32 1792.5 2163.5 1792.5 2133.68 1792.5 2109.5 1816.68 2109.5 1846.5Z" stroke="#FFFFFF" stroke-width="6.875" stroke-linecap="butt" stroke-linejoin="miter" stroke-miterlimit="8" stroke-opacity="1" fill="#FFFFFF" fill-rule="evenodd" fill-opacity="1"/></g></g></svg>