<svg width="1613" height="1613" xmlns="http://www.w3.org/2000/svg" xmlns:xlink="http://www.w3.org/1999/xlink" xml:space="preserve" overflow="hidden"><g transform="translate(-1393 -490)"><g><path d="M1396 1295.5C1396 851.187 1755.96 491 2200 491 2644.04 491 3004 851.187 3004 1295.5 3004 1739.81 2644.04 2100 2200 2100 1755.96 2100 1396 1739.81 1396 1295.5ZM1445.74 1295.5C1445.74 1712.34 1783.43 2050.26 2200 2050.26 2616.57 2050.26 2954.27 1712.34 2954.27 1295.5 2954.27 878.655 2616.57 540.736 2200 540.736 1783.43 540.736 1445.74 878.655 1445.74 1295.5Z" fill="#000000" fill-rule="evenodd" fill-opacity="1"/><path d="M2334.79 854.507C2591.18 854.507 2799.03 1062.53 2799.03 1319.14 2799.03 1575.75 2591.18 1783.78 2334.79 1783.78 2078.4 1783.78 1870.56 1575.75 1870.56 1319.14 1870.56 1303.1 1871.37 1287.25 1872.95 1271.64L1874.23 1263.26 1881.18 1290.33C1925.69 1433.56 2059.18 1537.56 2216.94 1537.56 2411.1 1537.56 2568.51 1380.03 2568.51 1185.7 2568.51 1039.95 2479.97 914.898 2353.79 861.482L2334.75 854.509ZM2201.94 642C2472.4 642 2704.45 806.578 2803.57 1041.13L2805 1045.04 2786.39 1014.38C2688.52 869.393 2522.78 774.065 2334.79 774.065 2034.01 774.065 1790.18 1018.1 1790.18 1319.14 1790.18 1620.18 2034.01 1864.22 2334.79 1864.22 2447.58 1864.22 2552.37 1829.9 2639.29 1771.13L2676.94 1742.95 2663.64 1757.59C2545.48 1875.85 2382.24 1949 2201.94 1949 1841.33 1949 1549 1656.42 1549 1295.5 1549 934.582 1841.33 642 2201.94 642Z" fill="#000000" fill-rule="evenodd" fill-opacity="1"/></g></g></svg>